<?xml version="1.0" encoding="UTF-8" standalone="no"?>
<!-- Generator: Adobe Illustrator 16.0.4, SVG Export Plug-In . SVG Version: 6.00 Build 0)  -->

<svg
   xmlns:dc="http://purl.org/dc/elements/1.1/"
   xmlns:cc="http://creativecommons.org/ns#"
   xmlns:rdf="http://www.w3.org/1999/02/22-rdf-syntax-ns#"
   xmlns:svg="http://www.w3.org/2000/svg"
   xmlns="http://www.w3.org/2000/svg"
   xmlns:sodipodi="http://sodipodi.sourceforge.net/DTD/sodipodi-0.dtd"
   xmlns:inkscape="http://www.inkscape.org/namespaces/inkscape"
   version="1.1"
   x="0px"
   y="0px"
   width="467.71317"
   height="277.37433"
   viewBox="0 0 467.71316 277.37431"
   enable-background="new 0 0 841.89 595.275"
   xml:space="preserve"
   id="svg3461"
   inkscape:version="0.91 r13725"
   sodipodi:docname="apo-rot.svg"><metadata
   id="metadata3543"><rdf:RDF><cc:Work
       rdf:about=""><dc:format>image/svg+xml</dc:format><dc:type
         rdf:resource="http://purl.org/dc/dcmitype/StillImage" /><dc:title></dc:title></cc:Work></rdf:RDF></metadata><defs
   id="defs3541" /><sodipodi:namedview
   pagecolor="#ffffff"
   bordercolor="#666666"
   borderopacity="1"
   objecttolerance="10"
   gridtolerance="10"
   guidetolerance="10"
   inkscape:pageopacity="0"
   inkscape:pageshadow="2"
   inkscape:window-width="1920"
   inkscape:window-height="1058"
   id="namedview3539"
   showgrid="false"
   fit-margin-top="20"
   fit-margin-left="20"
   fit-margin-right="20"
   fit-margin-bottom="20"
   inkscape:zoom="1.3873546"
   inkscape:cx="321.18407"
   inkscape:cy="121.48861"
   inkscape:window-x="1912"
   inkscape:window-y="478"
   inkscape:window-maximized="1"
   inkscape:current-layer="svg3461" />
<g
   id="Ebene_7"
   transform="translate(-242.64583,-131.0349)">
	<path
   d="m 408.246,327.902 -2.244,0 -18.253,0 -3.707,0 0.97,-3.576 2.058,-7.585 c -3.975,2.507 -7.82,4.647 -11.488,6.39 -5.841,2.775 -12.629,4.184 -20.175,4.184 -10.943,0 -19.78,-3.396 -26.27,-10.095 -6.466,-6.671 -9.744,-16.656 -9.744,-29.673 0,-10.654 1.684,-20.875 5.005,-30.379 3.315,-9.506 7.903,-17.968 13.639,-25.151 5.694,-7.162 12.54,-12.922 20.344,-17.122 7.876,-4.233 16.346,-6.379 25.18,-6.379 5.946,0 11.527,0.646 16.582,1.923 4.039,1.028 7.905,2.481 11.529,4.334 l 0.695,-1.569 0.747,-1.684 1.843,0 17.147,0 3.581,0 -0.821,3.484 -26.103,110.714 -0.515,2.184 0,0 z m -24.939,-98.05 c -6.336,0 -11.96,1.534 -16.711,4.553 -4.877,3.092 -9.064,7.234 -12.447,12.313 -3.238,4.825 -5.765,10.74 -7.515,17.588 -1.777,6.933 -2.679,13.723 -2.679,20.187 0,7.139 1.484,12.448 4.411,15.774 2.834,3.218 7.709,4.853 14.487,4.853 5.005,0 10.251,-1.279 15.597,-3.8 5.224,-2.466 10.107,-5.222 14.53,-8.202 l 13.162,-57.87 c -3.465,-1.674 -6.894,-2.962 -10.221,-3.841 -3.929,-1.031 -8.172,-1.555 -12.614,-1.555 l 0,0 z"
   id="path3464"
   inkscape:connector-curvature="0"
   style="fill:#b20933" />
	<path
   d="m 432.104,214.354 -26.102,110.715 -18.253,0 4.039,-14.89 c -6.131,4.319 -11.937,7.785 -17.42,10.391 -5.481,2.604 -11.799,3.911 -18.959,3.911 -10.187,0 -18.271,-3.075 -24.233,-9.232 -5.965,-6.155 -8.948,-15.389 -8.948,-27.703 0,-10.377 1.614,-20.191 4.848,-29.443 3.225,-9.25 7.619,-17.358 13.178,-24.317 5.485,-6.898 11.977,-12.36 19.472,-16.393 7.493,-4.03 15.435,-6.044 23.837,-6.044 5.75,0 11.043,0.615 15.887,1.84 4.842,1.229 9.366,3.081 13.563,5.554 l 1.945,-4.388 17.146,0 z m -22.708,19.361 c -4.334,-2.268 -8.581,-3.947 -12.753,-5.048 -4.171,-1.095 -8.619,-1.648 -13.335,-1.648 -6.918,0 -13,1.667 -18.233,4.995 -5.24,3.324 -9.668,7.707 -13.285,13.135 -3.427,5.104 -6.062,11.255 -7.902,18.458 -1.847,7.207 -2.767,14.172 -2.767,20.889 0,7.888 1.707,13.771 5.114,17.647 3.413,3.873 8.947,5.812 16.618,5.812 5.455,0 11.057,-1.356 16.806,-4.07 5.749,-2.711 11.025,-5.726 15.836,-9.048 l 13.901,-61.122 z"
   id="path3466"
   inkscape:connector-curvature="0"
   style="fill:#b20933" />
	<path
   d="m 427.176,342.959 -1.691,0 -7.277,0 -2.67,0 0.598,-2.604 13.646,-59.312 0.381,-1.648 1.691,0 7.283,0 2.672,0 -0.483,2.103 c 0.979,-0.554 1.954,-1.061 2.92,-1.514 2.589,-1.214 5.479,-1.83 8.592,-1.83 4.831,0 8.605,1.574 11.22,4.678 2.522,3 3.801,7.157 3.801,12.354 0,4.512 -0.708,8.824 -2.105,12.813 -1.41,4.008 -3.307,7.466 -5.638,10.282 -2.38,2.918 -5.196,5.257 -8.36,6.942 -3.234,1.727 -6.726,2.602 -10.375,2.602 -2.496,0 -4.835,-0.296 -6.951,-0.877 -1.142,-0.308 -2.241,-0.699 -3.292,-1.17 l -3.579,15.532 -0.383,1.649 0,0 z m 6.311,-27.405 c 1.013,0.472 1.993,0.844 2.931,1.112 1.325,0.383 2.983,0.577 4.938,0.577 2.275,0 4.259,-0.533 6.062,-1.63 1.849,-1.12 3.402,-2.604 4.614,-4.406 1.338,-1.976 2.345,-4.196 2.994,-6.609 0.67,-2.459 1.009,-5.153 1.009,-8.009 0,-2.562 -0.519,-4.506 -1.54,-5.778 -0.919,-1.144 -2.474,-1.7 -4.753,-1.7 -1.821,0 -3.757,0.467 -5.755,1.388 -1.917,0.887 -3.741,1.888 -5.422,2.976 l -5.078,22.079 0,0 z"
   id="path3468"
   inkscape:connector-curvature="0"
   style="fill:#b20933" />
	<path
   d="m 465.73,295.187 c 0,4.296 -0.662,8.334 -1.985,12.11 -1.329,3.776 -3.083,6.986 -5.269,9.627 -2.216,2.719 -4.788,4.86 -7.722,6.424 -2.935,1.565 -6.06,2.352 -9.376,2.352 -2.314,0 -4.446,-0.268 -6.388,-0.8 -1.943,-0.526 -3.712,-1.297 -5.306,-2.298 l -4.201,18.231 -7.277,0 13.646,-59.312 7.284,0 -1.05,4.554 c 2.393,-1.69 4.748,-3.08 7.062,-4.165 2.316,-1.086 4.877,-1.629 7.688,-1.629 4.196,0 7.393,1.31 9.594,3.922 2.199,2.614 3.3,6.273 3.3,10.984 z m -7.57,1.402 c 0,-3.07 -0.667,-5.441 -2.007,-7.11 -1.338,-1.663 -3.477,-2.495 -6.412,-2.495 -2.138,0 -4.355,0.529 -6.645,1.583 -2.294,1.062 -4.432,2.262 -6.415,3.604 l -5.639,24.53 c 1.67,0.903 3.267,1.571 4.789,2.009 1.521,0.439 3.359,0.66 5.524,0.66 2.651,0 5.041,-0.647 7.164,-1.939 2.126,-1.29 3.884,-2.971 5.273,-5.037 1.469,-2.167 2.566,-4.582 3.285,-7.242 0.725,-2.659 1.083,-5.514 1.083,-8.563 z"
   id="path3470"
   inkscape:connector-curvature="0"
   style="fill:#b20933" />
	<path
   d="m 489.284,328.194 c -5.699,0 -10.253,-1.697 -13.529,-5.046 -3.264,-3.335 -4.917,-7.932 -4.917,-13.664 0,-4.097 0.63,-8.059 1.872,-11.78 1.252,-3.752 3.087,-7.139 5.447,-10.06 2.312,-2.86 5.19,-5.178 8.561,-6.89 3.398,-1.727 7.153,-2.6 11.159,-2.6 5.527,0 10.019,1.641 13.351,4.876 3.355,3.243 5.057,7.884 5.057,13.793 0,4.102 -0.634,8.09 -1.887,11.856 -1.258,3.797 -3.076,7.162 -5.401,9.995 -2.411,2.954 -5.251,5.299 -8.436,6.965 -3.241,1.697 -7.034,2.555 -11.277,2.555 l 0,0 z m 7.424,-39.705 c -2.117,0 -3.954,0.491 -5.614,1.498 -1.718,1.046 -3.226,2.506 -4.482,4.339 -1.248,1.835 -2.228,4.04 -2.906,6.55 -0.694,2.538 -1.046,5.226 -1.046,7.992 0,3.019 0.688,5.312 2.043,6.823 1.312,1.462 3.192,2.174 5.751,2.174 2.102,0 3.944,-0.487 5.631,-1.492 1.725,-1.023 3.225,-2.481 4.458,-4.328 1.254,-1.879 2.228,-4.086 2.894,-6.563 0.685,-2.531 1.029,-5.25 1.029,-8.083 0,-3.058 -0.68,-5.342 -2.021,-6.79 -1.316,-1.427 -3.193,-2.12 -5.737,-2.12 l 0,0 z"
   id="path3472"
   inkscape:connector-curvature="0"
   style="fill:#b20933" />
	<path
   d="m 514.158,296.825 c 0,3.886 -0.59,7.612 -1.778,11.184 -1.186,3.577 -2.861,6.681 -5.028,9.32 -2.244,2.747 -4.842,4.891 -7.777,6.428 -2.938,1.539 -6.368,2.312 -10.29,2.312 -5.13,0 -9.134,-1.469 -12.01,-4.408 -2.877,-2.938 -4.311,-6.997 -4.311,-12.177 0,-3.881 0.586,-7.585 1.762,-11.106 1.175,-3.521 2.865,-6.653 5.086,-9.398 2.136,-2.644 4.758,-4.749 7.869,-6.33 3.105,-1.578 6.507,-2.371 10.196,-2.371 4.974,0 8.933,1.424 11.87,4.275 2.942,2.847 4.411,6.941 4.411,12.271 z m -11.848,16.4 c 1.386,-2.074 2.446,-4.468 3.18,-7.191 0.734,-2.72 1.102,-5.6 1.102,-8.635 0,-3.625 -0.862,-6.373 -2.588,-8.236 -1.723,-1.867 -4.157,-2.8 -7.295,-2.8 -2.499,0 -4.735,0.604 -6.718,1.808 -1.983,1.207 -3.694,2.857 -5.132,4.955 -1.395,2.047 -2.462,4.446 -3.206,7.196 -0.75,2.745 -1.12,5.597 -1.12,8.548 0,3.577 0.866,6.324 2.588,8.242 1.724,1.921 4.17,2.879 7.334,2.879 2.468,0 4.71,-0.596 6.717,-1.789 2.007,-1.194 3.719,-2.851 5.138,-4.977 z"
   id="path3474"
   inkscape:connector-curvature="0"
   style="fill:#b20933" />
	<polygon
   points="552.128,293.913 551.528,296.516 549.901,303.588 549.521,305.237 549.521,305.237 547.829,305.237 523.646,305.237 520.975,305.237 521.574,302.635 523.201,295.563 523.582,293.913 525.274,293.913 549.456,293.913 "
   id="polygon3476"
   style="fill:#b20933" />
	<path
   d="m 547.829,303.111 -24.183,0 1.628,-7.072 24.182,0 -1.627,7.072 z"
   id="path3478"
   inkscape:connector-curvature="0"
   style="fill:#b20933" />
	<path
   d="m 561.771,326.955 -1.694,0 -6.373,0 -2.668,0 0.596,-2.602 9.919,-43.308 0.378,-1.652 1.694,0 7.36,0 2.668,0 -0.597,2.601 -0.296,1.291 c 1.72,-1.016 3.275,-1.795 4.698,-2.349 2.618,-1.022 5.188,-1.543 7.635,-1.543 1.308,0 2.31,0.038 2.977,0.111 0.605,0.073 1.462,0.197 2.587,0.384 l 2.231,0.367 -0.506,2.206 -1.661,7.228 -0.38,1.65 -1.691,0 -0.389,0 -0.263,0 -0.256,-0.065 c -0.961,-0.242 -1.848,-0.416 -2.633,-0.521 -0.881,-0.116 -1.839,-0.227 -2.944,-0.227 -2.028,0 -4.09,0.498 -6.305,1.522 -1.144,0.527 -2.297,1.119 -3.516,1.747 -1.006,0.519 -2.121,1.09 -3.365,1.696 l -6.829,29.81 -0.377,1.654 0,0 z"
   id="path3480"
   inkscape:connector-curvature="0"
   style="fill:#b20933" />
	<path
   d="m 588.648,289.215 -0.388,0 c -1.028,-0.259 -1.984,-0.449 -2.873,-0.567 -0.888,-0.116 -1.963,-0.246 -3.225,-0.246 -2.422,0 -4.815,0.617 -7.195,1.718 -2.379,1.096 -4.657,2.396 -7.833,3.899 l -7.057,30.809 -6.374,0 9.918,-43.308 7.361,0 -1.472,6.421 c 3.428,-2.417 6.334,-4.092 8.719,-5.023 2.381,-0.931 4.67,-1.397 6.861,-1.397 1.261,0 2.176,0.036 2.744,0.099 0.564,0.067 1.39,0.188 2.473,0.368 l -1.659,7.227 z"
   id="path3482"
   inkscape:connector-curvature="0"
   style="fill:#b20933" />
	<path
   d="m 607.438,328.195 c -5.701,0 -10.254,-1.698 -13.532,-5.047 -3.264,-3.34 -4.918,-7.937 -4.918,-13.665 0,-4.089 0.631,-8.051 1.871,-11.777 1.249,-3.745 3.083,-7.131 5.45,-10.062 2.314,-2.859 5.194,-5.177 8.562,-6.888 3.4,-1.728 7.154,-2.604 11.158,-2.604 5.525,0 10.018,1.641 13.354,4.875 3.354,3.245 5.059,7.889 5.059,13.796 0,4.099 -0.637,8.089 -1.893,11.855 -1.257,3.791 -3.071,7.154 -5.396,9.996 -2.422,2.962 -5.262,5.307 -8.441,6.965 -3.235,1.696 -7.028,2.556 -11.274,2.556 l 0,0 z m 7.424,-39.706 c -2.12,0 -3.955,0.49 -5.613,1.498 -1.716,1.044 -3.227,2.506 -4.49,4.344 -1.238,1.825 -2.217,4.032 -2.903,6.549 -0.693,2.555 -1.044,5.245 -1.044,7.989 0,3.02 0.686,5.312 2.042,6.819 1.314,1.464 3.194,2.175 5.752,2.175 2.104,0 3.945,-0.487 5.631,-1.489 1.728,-1.027 3.226,-2.483 4.454,-4.327 1.259,-1.882 2.231,-4.089 2.896,-6.563 0.686,-2.536 1.031,-5.253 1.031,-8.085 0,-3.055 -0.679,-5.34 -2.021,-6.795 -1.319,-1.423 -3.194,-2.115 -5.735,-2.115 l 0,0 z"
   id="path3484"
   inkscape:connector-curvature="0"
   style="fill:#b20933" />
	<path
   d="m 632.315,296.825 c 0,3.886 -0.594,7.612 -1.782,11.184 -1.188,3.577 -2.865,6.681 -5.027,9.32 -2.247,2.747 -4.836,4.891 -7.778,6.428 -2.94,1.539 -6.367,2.312 -10.289,2.312 -5.13,0 -9.136,-1.469 -12.013,-4.408 -2.871,-2.938 -4.311,-6.997 -4.311,-12.177 0,-3.881 0.589,-7.585 1.762,-11.106 1.173,-3.521 2.869,-6.653 5.086,-9.398 2.142,-2.644 4.764,-4.749 7.873,-6.33 3.106,-1.578 6.505,-2.371 10.193,-2.371 4.974,0 8.933,1.424 11.871,4.275 2.944,2.847 4.415,6.941 4.415,12.271 z m -11.855,16.4 c 1.388,-2.074 2.45,-4.468 3.18,-7.191 0.735,-2.72 1.104,-5.6 1.104,-8.635 0,-3.625 -0.867,-6.373 -2.586,-8.236 -1.728,-1.867 -4.158,-2.8 -7.296,-2.8 -2.499,0 -4.737,0.604 -6.719,1.808 -1.981,1.207 -3.693,2.857 -5.137,4.955 -1.387,2.047 -2.453,4.446 -3.202,7.196 -0.744,2.745 -1.119,5.597 -1.119,8.548 0,3.577 0.861,6.324 2.589,8.242 1.723,1.921 4.164,2.879 7.331,2.879 2.472,0 4.71,-0.596 6.718,-1.789 2.008,-1.193 3.721,-2.851 5.137,-4.977 z"
   id="path3486"
   inkscape:connector-curvature="0"
   style="fill:#b20933" />
	<path
   d="m 652.027,327.824 c -4.048,0 -7.284,-0.947 -9.62,-2.816 -2.476,-1.986 -3.728,-5.047 -3.728,-9.099 0,-0.911 0.065,-1.842 0.194,-2.764 0.121,-0.867 0.293,-1.844 0.507,-2.903 l 4.812,-20.762 -2.264,0 -2.664,0 0.591,-2.598 1.329,-5.835 0.377,-1.653 1.696,0 3.27,0 2.49,-10.76 0.382,-1.647 1.689,0 7.248,0 2.675,0 -0.604,2.605 -2.27,9.802 12.447,0 2.664,0 -0.591,2.596 -1.327,5.834 -0.375,1.655 -1.698,0 -13.453,0 -4.237,18.392 c -0.243,0.976 -0.462,2.086 -0.661,3.341 -0.188,1.195 -0.284,2.138 -0.284,2.802 0,1.284 0.266,2.189 0.786,2.689 0.191,0.185 1.039,0.788 3.845,0.788 0.889,0 1.99,-0.159 3.277,-0.473 1.723,-0.417 2.424,-0.638 2.708,-0.748 l 0.371,-0.145 0.398,0 0.388,0 2.641,0 -0.563,2.58 -1.356,6.216 -0.282,1.293 -1.286,0.317 c -1.521,0.376 -3.156,0.688 -4.854,0.925 -1.792,0.25 -3.317,0.368 -4.668,0.368 l 0,0 z"
   id="path3488"
   inkscape:connector-curvature="0"
   style="fill:#b20933" />
	<path
   d="m 670.584,281.521 -1.325,5.833 -15.149,0 -4.615,20.043 c -0.252,1.013 -0.482,2.175 -0.688,3.483 -0.207,1.309 -0.311,2.353 -0.311,3.134 0,1.896 0.48,3.3 1.438,4.222 0.959,0.922 2.729,1.382 5.319,1.382 1.061,0 2.322,-0.178 3.78,-0.533 1.462,-0.354 2.456,-0.63 2.975,-0.831 l 0.388,0 -1.356,6.217 c -1.453,0.358 -2.997,0.652 -4.641,0.883 -1.647,0.228 -3.105,0.347 -4.371,0.347 -3.574,0 -6.336,-0.786 -8.292,-2.352 -1.952,-1.567 -2.93,-4.048 -2.93,-7.438 0,-0.831 0.059,-1.651 0.174,-2.47 0.114,-0.813 0.274,-1.74 0.484,-2.776 l 5.402,-23.31 -4.938,0 1.329,-5.833 4.958,0 2.873,-12.408 7.249,0 -2.872,12.408 15.119,0 z"
   id="path3490"
   inkscape:connector-curvature="0"
   style="fill:#b20933" />
	<g
   id="g3492">
		<path
   d="m 690.359,266.268 c 0,2.178 -0.725,4.037 -2.174,5.577 -1.456,1.542 -3.212,2.31 -5.261,2.31 -2.05,0 -3.802,-0.768 -5.252,-2.31 -1.455,-1.54 -2.184,-3.399 -2.184,-5.577 0,-2.173 0.729,-4.035 2.184,-5.575 1.45,-1.539 3.202,-2.311 5.252,-2.311 2.049,0 3.805,0.771 5.261,2.311 1.45,1.539 2.174,3.401 2.174,5.575 z m -0.999,0 c 0,-1.884 -0.624,-3.503 -1.885,-4.853 -1.252,-1.347 -2.772,-2.02 -4.551,-2.02 -1.772,0 -3.294,0.673 -4.548,2.02 -1.258,1.35 -1.883,2.969 -1.883,4.853 0,1.889 0.625,3.505 1.883,4.852 1.254,1.349 2.775,2.024 4.548,2.024 1.778,0 3.299,-0.675 4.551,-2.024 1.261,-1.347 1.885,-2.963 1.885,-4.852 z m -1.645,4.014 -1.916,0 -2.842,-3.238 -1.398,0 0,3.238 -1.416,0 0,-8.344 2.681,0 c 0.54,0 0.986,0.024 1.331,0.073 0.359,0.05 0.696,0.164 1.035,0.357 0.361,0.204 0.626,0.455 0.794,0.748 0.169,0.295 0.251,0.668 0.251,1.109 0,0.591 -0.156,1.083 -0.48,1.473 -0.329,0.396 -0.768,0.708 -1.341,0.936 l 3.301,3.648 z m -3.029,-5.955 c 0,-0.219 -0.038,-0.414 -0.119,-0.58 -0.075,-0.175 -0.217,-0.318 -0.406,-0.423 -0.173,-0.103 -0.36,-0.17 -0.566,-0.201 -0.197,-0.032 -0.454,-0.046 -0.758,-0.046 l -1.277,0 0,2.82 1.093,0 c 0.353,0 0.665,-0.031 0.924,-0.089 0.252,-0.059 0.467,-0.155 0.634,-0.297 0.171,-0.151 0.305,-0.317 0.375,-0.5 0.071,-0.181 0.1,-0.409 0.1,-0.684 z"
   id="path3494"
   inkscape:connector-curvature="0"
   style="fill:#b20933" />
	</g>
	<path
   d="m 482.261,248.382 c 6.198,1.885 7.053,2.128 13.628,4.243 -0.108,-1.376 0.279,-1.896 -3.281,-16.073 -1.958,-7.006 -5.182,-17.081 -12.951,-29.802 -7.835,-12.484 -20.512,-28.061 -42.571,-40.46 -0.019,0.117 -8.47,-5.737 -24.791,-10.689 -16.125,-4.896 -41.083,-7.577 -67.538,1.038 0.023,0.023 -6.045,1.733 -15.945,6.545 -9.804,4.852 -23.433,13.38 -36.028,27.631 -12.61,14.054 -23.906,34.104 -28.143,57.731 -4.389,23.497 -1.703,50.131 9.713,73.357 11.198,23.325 30.877,42.582 52.883,53.733 22.003,11.381 46.366,14.44 66.74,11.979 20.687,-2.107 37.399,-9.559 48.834,-16.854 11.542,-7.214 17.908,-14.144 20.433,-16.765 -0.128,-0.319 -10.276,11.904 -31.34,22.237 -20.643,10.522 -53.405,16.409 -84.302,6.979 -31.026,-8.918 -56.722,-32.024 -69.001,-54.365 -12.792,-22.399 -14.481,-41.98 -14.613,-45.35 0.204,-0.14 0.817,15.195 10.222,35.823 9.138,20.486 29.761,44.841 58.016,57.25 28.765,13.2 60.863,12.6 83.774,4.619 23.34,-7.665 36.843,-20.278 39.887,-23.259 -0.068,-0.235 -10.102,10.122 -29.797,18.614 -19.352,8.654 -49.307,13.262 -77.727,4.53 -28.532,-8.074 -52.753,-28.889 -64.968,-49.486 -12.726,-20.579 -15.021,-38.973 -15.311,-43.792 0.114,-0.109 1.288,13.093 9.74,30.947 8.176,17.781 26.359,39.657 50.616,52.004 27.34,13.11 52.599,14.954 74.285,10.005 21.992,-4.586 36.146,-14.825 40.735,-18.5 0.019,-0.012 -7.711,5.688 -17.648,10.061 -9.38,4.295 -16.934,6.428 -21.747,7.466 5.318,-1.579 9.173,-2.737 9.366,-3.252 -3.169,1.011 -12.278,4.119 -25.389,4.835 -5.326,0.36 -10.652,0.562 -16.329,-0.062 -0.027,0.077 12.329,0.647 23.761,-1.217 14.134,-2.271 20.478,-6.187 25.152,-8.015 0.9,0.861 -8.673,3.815 -18.334,5.923 -9.097,1.626 -21.203,3.834 -41.226,0.685 -6.804,-1.362 -17.787,-3.864 -33.466,-12.425 -9.698,-5.375 -21.081,-13.523 -31.437,-26.008 -10.331,-12.369 -19.442,-29.33 -23.179,-49.88 -3.713,-20.398 -1.917,-44.552 9.171,-67.074 10.74,-22.474 30.937,-42.999 57.591,-53.441 26.399,-10.533 59.179,-10.463 87.138,3.953 28.014,13.877 50.555,41.65 55.377,74.581 z"
   id="path3496"
   inkscape:connector-curvature="0"
   style="fill:#b20933" />
</g>
<g
   id="Subtitel"
   display="none"
   style="display:none"
   transform="translate(-242.64583,-131.0349)">
	<g
   display="inline"
   id="g3499"
   style="display:inline">
		<path
   d="m 523.126,338.586 0,13.912 -1.692,0 0,-13.912 1.692,0 z"
   id="path3501"
   inkscape:connector-curvature="0"
   style="fill:#4d4d4d" />
		<path
   d="m 528.609,338.586 0,5.37 0.033,0.021 c 0.39,-0.911 1.475,-1.364 3.257,-1.364 2.641,0 3.963,1.086 3.963,3.261 l 0,0.399 0,6.226 -1.541,0 0,-6.226 0,-0.278 c 0,-1.466 -0.812,-2.199 -2.434,-2.199 -1.304,0 -2.179,0.215 -2.618,0.646 -0.44,0.432 -0.66,1.289 -0.66,2.575 l 0,5.482 -1.54,0 0,-13.912 1.54,0 z"
   id="path3503"
   inkscape:connector-curvature="0"
   style="fill:#4d4d4d" />
		<path
   d="m 539.935,342.755 1.542,0 -0.155,1.12 0.031,0.032 c 0.609,-0.919 1.616,-1.378 3.018,-1.378 1.938,0 2.906,0.925 2.906,2.772 l -0.012,0.674 -1.519,0 0.032,-0.246 c 0.02,-0.257 0.031,-0.432 0.031,-0.519 0,-0.999 -0.588,-1.499 -1.76,-1.499 -1.716,0 -2.573,0.98 -2.573,2.946 l 0,5.84 -1.542,0 0,-9.742 z"
   id="path3505"
   inkscape:connector-curvature="0"
   style="fill:#4d4d4d" />
		<path
   d="m 557.205,349.553 1.571,0 0.011,0.357 c 0,1.012 -0.334,1.719 -0.998,2.125 -0.662,0.402 -1.825,0.604 -3.491,0.604 -1.936,0 -3.206,-0.326 -3.812,-0.98 -0.605,-0.657 -0.907,-2.036 -0.907,-4.136 0,-1.941 0.304,-3.245 0.914,-3.913 0.608,-0.666 1.801,-0.998 3.575,-0.998 1.937,0 3.202,0.288 3.807,0.866 0.6,0.577 0.902,1.794 0.902,3.648 l 0,0.766 -7.568,0 c 0,1.533 0.178,2.512 0.531,2.934 0.358,0.422 1.187,0.634 2.491,0.634 1.24,0 2.046,-0.101 2.417,-0.302 0.37,-0.199 0.558,-0.634 0.558,-1.299 l 0,-0.306 z m 0,-2.773 -0.014,-0.459 c 0,-1.053 -0.188,-1.737 -0.56,-2.053 -0.378,-0.318 -1.184,-0.474 -2.421,-0.474 -1.249,0 -2.061,0.184 -2.428,0.555 -0.37,0.369 -0.554,1.18 -0.554,2.431 l 5.977,0 z"
   id="path3507"
   inkscape:connector-curvature="0"
   style="fill:#4d4d4d" />
		<path
   d="m 578.918,338.586 1.816,0 -5.314,13.912 -2.422,0 -5.366,-13.912 1.804,0 4.004,10.51 0.396,1.068 c 0.146,0.412 0.269,0.771 0.36,1.07 l 0.047,0 c 0.218,-0.686 0.466,-1.394 0.737,-2.121 l 3.938,-10.527 z"
   id="path3509"
   inkscape:connector-curvature="0"
   style="fill:#4d4d4d" />
		<path
   d="m 590.422,349.553 1.571,0 0.011,0.357 c 0,1.012 -0.33,1.719 -0.995,2.125 -0.664,0.402 -1.83,0.604 -3.493,0.604 -1.936,0 -3.207,-0.326 -3.812,-0.98 -0.604,-0.657 -0.908,-2.036 -0.908,-4.136 0,-1.941 0.306,-3.245 0.914,-3.913 0.609,-0.666 1.8,-0.998 3.574,-0.998 1.937,0 3.208,0.288 3.809,0.866 0.6,0.577 0.901,1.794 0.901,3.648 l 0,0.766 -7.569,0 c 0,1.533 0.177,2.512 0.534,2.934 0.355,0.422 1.185,0.634 2.492,0.634 1.239,0 2.043,-0.101 2.415,-0.302 0.367,-0.199 0.557,-0.634 0.557,-1.299 l 0,-0.306 z m 0,-2.773 -0.012,-0.459 c 0,-1.053 -0.188,-1.737 -0.562,-2.053 -0.374,-0.318 -1.183,-0.474 -2.421,-0.474 -1.246,0 -2.055,0.184 -2.425,0.555 -0.37,0.369 -0.555,1.18 -0.555,2.431 l 5.975,0 z"
   id="path3511"
   inkscape:connector-curvature="0"
   style="fill:#4d4d4d" />
		<path
   d="m 595.705,342.755 1.543,0 -0.156,1.12 0.032,0.032 c 0.606,-0.919 1.615,-1.378 3.016,-1.378 1.937,0 2.905,0.925 2.905,2.772 l -0.012,0.674 -1.517,0 0.032,-0.246 c 0.021,-0.257 0.032,-0.432 0.032,-0.519 0,-0.999 -0.589,-1.499 -1.764,-1.499 -1.714,0 -2.569,0.98 -2.569,2.946 l 0,5.84 -1.543,0 0,-9.742 z"
   id="path3513"
   inkscape:connector-curvature="0"
   style="fill:#4d4d4d" />
		<path
   d="m 613.809,345.302 -1.54,0 c 0,-0.679 -0.149,-1.1 -0.444,-1.264 -0.301,-0.163 -1.062,-0.243 -2.296,-0.243 -1.145,0 -1.867,0.086 -2.178,0.259 -0.307,0.172 -0.463,0.591 -0.463,1.248 0,1 0.519,1.523 1.55,1.57 l 1.247,0.06 1.572,0.074 c 1.904,0.087 2.861,1.011 2.861,2.771 0,1.096 -0.319,1.845 -0.948,2.253 -0.63,0.406 -1.785,0.61 -3.465,0.61 -1.725,0 -2.91,-0.191 -3.559,-0.579 -0.649,-0.388 -0.975,-1.098 -0.975,-2.131 l 0.012,-0.529 1.594,0 0.011,0.459 c 0,0.637 0.177,1.064 0.529,1.276 0.352,0.216 1.045,0.324 2.082,0.324 1.267,0 2.101,-0.112 2.5,-0.338 0.399,-0.225 0.601,-0.694 0.601,-1.408 0,-1.025 -0.504,-1.539 -1.507,-1.539 -2.343,0 -3.878,-0.182 -4.616,-0.55 -0.738,-0.366 -1.105,-1.128 -1.105,-2.282 0,-1.093 0.29,-1.822 0.875,-2.186 0.582,-0.365 1.743,-0.545 3.479,-0.545 2.789,0 4.183,0.777 4.183,2.333 l 0,0.357 z"
   id="path3515"
   inkscape:connector-curvature="0"
   style="fill:#4d4d4d" />
		<path
   d="m 619.06,345.485 -1.529,0 c 0,-1.136 0.277,-1.897 0.83,-2.288 0.557,-0.391 1.638,-0.585 3.254,-0.585 1.753,0 2.938,0.238 3.553,0.72 0.615,0.477 0.925,1.389 0.925,2.734 l 0,6.432 -1.54,0 0.119,-1.048 -0.031,-0.011 c -0.586,0.802 -1.779,1.2 -3.577,1.2 -2.654,0 -3.981,-0.988 -3.981,-2.965 0,-1.176 0.296,-1.986 0.888,-2.436 0.596,-0.449 1.673,-0.674 3.226,-0.674 1.848,0 2.957,0.336 3.322,1.01 l 0.035,-0.01 0,-1.183 c 0,-1.114 -0.164,-1.836 -0.494,-2.165 -0.332,-0.331 -1.056,-0.495 -2.17,-0.495 -1.894,0 -2.839,0.493 -2.839,1.48 -0.002,0.047 0.002,0.142 0.009,0.284 z m 2.476,2.194 c -1.183,0 -1.948,0.116 -2.302,0.346 -0.359,0.23 -0.538,0.726 -0.538,1.487 0,0.787 0.177,1.31 0.532,1.564 0.348,0.256 1.065,0.384 2.142,0.384 2.172,0 3.255,-0.612 3.255,-1.837 0,-0.768 -0.209,-1.284 -0.632,-1.547 -0.42,-0.267 -1.237,-0.397 -2.457,-0.397 z"
   id="path3517"
   inkscape:connector-curvature="0"
   style="fill:#4d4d4d" />
		<path
   d="m 630.066,342.755 1.485,0 -0.045,1.325 0.045,0.029 c 0.471,-0.998 1.636,-1.497 3.501,-1.497 1.504,0 2.521,0.244 3.051,0.734 0.531,0.488 0.8,1.427 0.8,2.812 l 0,6.34 -1.542,0 0,-6.216 0,-0.367 c 0,-0.837 -0.174,-1.398 -0.516,-1.689 -0.346,-0.287 -1.01,-0.431 -1.994,-0.431 -2.163,0 -3.244,0.948 -3.244,2.844 l 0,5.859 -1.541,0 0,-9.743 z"
   id="path3519"
   inkscape:connector-curvature="0"
   style="fill:#4d4d4d" />
		<path
   d="m 651.602,338.586 0,13.912 -1.539,0 0.079,-1.264 -0.045,-0.013 c -0.485,0.948 -1.61,1.418 -3.379,1.418 -1.611,0 -2.715,-0.362 -3.308,-1.088 -0.59,-0.728 -0.883,-2.084 -0.883,-4.068 0,-1.828 0.295,-3.098 0.889,-3.808 0.596,-0.709 1.661,-1.063 3.191,-1.063 1.915,0 3.054,0.457 3.422,1.374 l 0.033,-0.021 0,-5.38 1.54,0 z m -4.629,5.209 c -1.138,0 -1.893,0.243 -2.268,0.728 -0.373,0.487 -0.562,1.47 -0.562,2.951 0,1.63 0.187,2.702 0.556,3.216 0.372,0.513 1.14,0.771 2.306,0.771 1.269,0 2.095,-0.258 2.474,-0.771 0.384,-0.514 0.574,-1.631 0.574,-3.349 0,-1.393 -0.212,-2.331 -0.632,-2.818 -0.423,-0.485 -1.239,-0.728 -2.448,-0.728 z"
   id="path3521"
   inkscape:connector-curvature="0"
   style="fill:#4d4d4d" />
		<path
   d="m 664.744,349.553 -7.604,0 -1.154,2.945 -1.795,0 5.5,-13.912 2.378,0 5.613,13.912 -1.772,0 -1.166,-2.945 z m -0.496,-1.184 -3.331,-8.499 -3.292,8.499 6.623,0 z"
   id="path3523"
   inkscape:connector-curvature="0"
   style="fill:#4d4d4d" />
		<path
   d="m 670.27,342.755 1.54,0 -0.077,1.231 0.043,0.031 c 0.538,-0.937 1.689,-1.405 3.458,-1.405 1.562,0 2.637,0.364 3.222,1.1 0.589,0.734 0.881,2.088 0.881,4.057 0,1.828 -0.296,3.097 -0.891,3.807 -0.595,0.71 -1.65,1.064 -3.169,1.064 -1.731,0 -2.875,-0.431 -3.431,-1.292 l -0.036,0 0,5.33 -1.54,0 0,-13.923 z m 4.533,1.04 c -1.234,0 -2.033,0.245 -2.411,0.737 -0.37,0.493 -0.559,1.552 -0.559,3.176 0,1.502 0.202,2.5 0.604,3.002 0.406,0.498 1.217,0.75 2.435,0.75 1.159,0 1.922,-0.242 2.293,-0.724 0.37,-0.483 0.552,-1.48 0.552,-2.985 0,-1.661 -0.176,-2.733 -0.537,-3.223 -0.359,-0.49 -1.15,-0.733 -2.377,-0.733 z"
   id="path3525"
   inkscape:connector-curvature="0"
   style="fill:#4d4d4d" />
		<path
   d="m 687.239,342.612 c 1.945,0 3.206,0.312 3.785,0.937 0.581,0.627 0.87,1.984 0.87,4.076 0,2.094 -0.289,3.453 -0.87,4.077 -0.579,0.627 -1.84,0.938 -3.785,0.938 -1.935,0 -3.195,-0.311 -3.774,-0.938 -0.578,-0.624 -0.868,-1.983 -0.868,-4.077 0,-2.092 0.29,-3.449 0.868,-4.076 0.579,-0.624 1.84,-0.937 3.774,-0.937 z m 0,1.183 c -1.363,0 -2.21,0.205 -2.536,0.615 -0.326,0.411 -0.492,1.483 -0.492,3.215 0,1.735 0.166,2.805 0.492,3.217 0.326,0.411 1.173,0.618 2.536,0.618 1.372,0 2.22,-0.207 2.549,-0.618 0.322,-0.412 0.487,-1.481 0.487,-3.217 0,-1.731 -0.165,-2.804 -0.487,-3.215 -0.329,-0.41 -1.177,-0.615 -2.549,-0.615 z"
   id="path3527"
   inkscape:connector-curvature="0"
   style="fill:#4d4d4d" />
		<path
   d="m 700.996,342.755 0,1.182 -4.048,0 0,5.964 c 0,1.038 0.497,1.56 1.497,1.56 0.99,0 1.484,-0.466 1.484,-1.398 l 0.011,-0.479 0.021,-0.54 1.433,0 0.009,0.724 c 0,1.918 -0.983,2.873 -2.948,2.873 -2.03,0 -3.045,-0.798 -3.045,-2.393 l 0,-0.348 0,-5.964 -1.455,0 0,-1.182 1.455,0 0,-2.344 1.538,0 0,2.344 4.048,0 z"
   id="path3529"
   inkscape:connector-curvature="0"
   style="fill:#4d4d4d" />
		<path
   d="m 705.423,338.586 0,5.37 0.032,0.021 c 0.393,-0.911 1.476,-1.364 3.26,-1.364 2.639,0 3.961,1.086 3.961,3.261 l 0,0.399 0,6.226 -1.542,0 0,-6.226 0,-0.278 c 0,-1.466 -0.811,-2.199 -2.432,-2.199 -1.306,0 -2.18,0.215 -2.618,0.646 -0.44,0.432 -0.661,1.289 -0.661,2.575 l 0,5.482 -1.541,0 0,-13.912 1.541,0 z"
   id="path3531"
   inkscape:connector-curvature="0"
   style="fill:#4d4d4d" />
		<path
   d="m 723.911,349.553 1.574,0 0.01,0.357 c 0,1.012 -0.332,1.719 -0.995,2.125 -0.665,0.402 -1.828,0.604 -3.491,0.604 -1.939,0 -3.208,-0.326 -3.815,-0.98 -0.605,-0.657 -0.906,-2.036 -0.906,-4.136 0,-1.941 0.303,-3.245 0.913,-3.913 0.608,-0.666 1.801,-0.998 3.575,-0.998 1.937,0 3.205,0.288 3.807,0.866 0.603,0.577 0.903,1.794 0.903,3.648 l 0,0.766 -7.571,0 c 0,1.533 0.179,2.512 0.535,2.934 0.356,0.422 1.186,0.634 2.492,0.634 1.239,0 2.044,-0.101 2.412,-0.302 0.374,-0.199 0.558,-0.634 0.558,-1.299 l 0,-0.306 z m 0,-2.773 -0.011,-0.459 c 0,-1.053 -0.187,-1.737 -0.562,-2.053 -0.374,-0.318 -1.179,-0.474 -2.418,-0.474 -1.249,0 -2.058,0.184 -2.427,0.555 -0.372,0.369 -0.557,1.18 -0.557,2.431 l 5.975,0 z"
   id="path3533"
   inkscape:connector-curvature="0"
   style="fill:#4d4d4d" />
		<path
   d="m 730.583,338.586 0,8.082 0.706,0 3.719,-3.913 1.936,0 -4.5,4.474 5.314,5.27 -2.08,0 -4.466,-4.717 -0.629,0 0,4.717 -1.54,0 0,-13.912 1.54,0 z"
   id="path3535"
   inkscape:connector-curvature="0"
   style="fill:#4d4d4d" />
		<path
   d="m 747.181,349.553 1.572,0 0.011,0.357 c 0,1.012 -0.331,1.719 -0.995,2.125 -0.665,0.402 -1.83,0.604 -3.493,0.604 -1.936,0 -3.207,-0.326 -3.813,-0.98 -0.604,-0.657 -0.907,-2.036 -0.907,-4.136 0,-1.941 0.306,-3.245 0.914,-3.913 0.609,-0.666 1.802,-0.998 3.574,-0.998 1.936,0 3.207,0.288 3.808,0.866 0.602,0.577 0.902,1.794 0.902,3.648 l 0,0.766 -7.569,0 c 0,1.533 0.176,2.512 0.53,2.934 0.358,0.422 1.188,0.634 2.495,0.634 1.24,0 2.044,-0.101 2.415,-0.302 0.367,-0.199 0.557,-0.634 0.557,-1.299 l 0,-0.306 z m 0,-2.773 -0.011,-0.459 c 0,-1.053 -0.188,-1.737 -0.562,-2.053 -0.375,-0.318 -1.183,-0.474 -2.423,-0.474 -1.245,0 -2.053,0.184 -2.428,0.555 -0.369,0.369 -0.552,1.18 -0.552,2.431 l 5.976,0 z"
   id="path3537"
   inkscape:connector-curvature="0"
   style="fill:#4d4d4d" />
	</g>
</g>
</svg>