<?xml version="1.0" encoding="utf-8"?>
<!-- Generator: Adobe Illustrator 15.1.0, SVG Export Plug-In . SVG Version: 6.00 Build 0)  -->
<!DOCTYPE svg PUBLIC "-//W3C//DTD SVG 1.1//EN" "http://www.w3.org/Graphics/SVG/1.1/DTD/svg11.dtd" [
	<!ENTITY ns_extend "http://ns.adobe.com/Extensibility/1.0/">
	<!ENTITY ns_ai "http://ns.adobe.com/AdobeIllustrator/10.0/">
	<!ENTITY ns_graphs "http://ns.adobe.com/Graphs/1.0/">
	<!ENTITY ns_vars "http://ns.adobe.com/Variables/1.0/">
	<!ENTITY ns_imrep "http://ns.adobe.com/ImageReplacement/1.0/">
	<!ENTITY ns_sfw "http://ns.adobe.com/SaveForWeb/1.0/">
	<!ENTITY ns_custom "http://ns.adobe.com/GenericCustomNamespace/1.0/">
	<!ENTITY ns_adobe_xpath "http://ns.adobe.com/XPath/1.0/">
]>
<svg version="1.1" id="Ebene_1" xmlns:x="&ns_extend;" xmlns:i="&ns_ai;" xmlns:graph="&ns_graphs;"
	 xmlns="http://www.w3.org/2000/svg" xmlns:xlink="http://www.w3.org/1999/xlink" x="0px" y="0px" width="67.9px" height="72.2px"
	 viewBox="0 0 67.9 72.2" style="enable-background:new 0 0 67.9 72.2;" xml:space="preserve">
<style type="text/css">
<![CDATA[
	.st0{display:inline;fill:#E40712;}
	.st1{fill:#E40712;}
	.st2{fill:none;stroke:#FFFFFF;stroke-width:2.911;stroke-miterlimit:10;}
	.st3{clip-path:url(#SVGID_2_);fill:#E40712;}
	.st4{clip-path:url(#SVGID_4_);fill:#E40712;}
	.st5{fill:#FFFFFF;}
	.st6{fill:none;}
	.st7{display:inline;}
	.st8{display:inline;fill:#6DC7DA;}
	.st9{display:inline;fill:#06579E;}
	.st10{fill:#6DC7DA;}
	.st11{fill:#06579E;}
	.st12{display:none;}
	.st13{display:inline;fill:none;stroke:#FFFFFF;stroke-width:3;stroke-miterlimit:10;}
	.st14{fill:none;stroke:#FFFFFF;stroke-width:3;stroke-miterlimit:10;}
]]>
</style>
<metadata>
	<sfw  xmlns="&ns_sfw;">
		<slices></slices>
		<sliceSourceBounds  x="-0.8" y="-72.2" width="164.1" height="72.2" bottomLeftOrigin="true"></sliceSourceBounds>
	</sfw>
</metadata>
<g>
	<path class="st10" d="M54.9,44.6c0,1.8-1.4,3.2-3.2,3.2H12.5c-1.8,0-3.2-1.4-3.2-3.2V5.4c0-1.8,1.4-3.2,3.2-3.2h39.2
		c1.8,0,3.2,1.4,3.2,3.2V44.6z"/>
	<g>
		<defs>
			<path id="SVGID_1_" d="M12.5,2.3c-1.8,0-3.2,1.4-3.2,3.2v39.2c0,1.8,1.4,3.2,3.2,3.2h39.2c1.8,0,3.2-1.4,3.2-3.2V5.4
				c0-1.8-1.4-3.2-3.2-3.2H12.5z"/>
		</defs>
		<clipPath id="SVGID_2_">
			<use xlink:href="#SVGID_1_"  style="overflow:visible;"/>
		</clipPath>
		<path class="st3" d="M9.5,53.4h8.8v8.8c0,3.5,2.8,6.3,6.3,6.3c3.5,0,6.3-2.8,6.3-6.3v-8.8h8.8c3.5,0,6.3-2.8,6.3-6.3
			c0-3.5-2.8-6.3-6.3-6.3h-8.8v-8.8c0-3.5-2.8-6.3-6.3-6.3c-3.5,0-6.3,2.8-6.3,6.3v8.8H9.5c-3.5,0-6.3,2.8-6.3,6.3
			C3.2,50.6,6,53.4,9.5,53.4"/>
	</g>
	<path class="st11" d="M61.4,12.5h-6.8V5.7c0-2.7-2.2-4.9-4.9-4.9s-4.9,2.2-4.9,4.9v6.8h-6.8c-2.7,0-4.9,2.2-4.9,4.9
		c0,2.7,2.2,4.9,4.9,4.9h6.8V29c0,2.7,2.2,4.9,4.9,4.9s4.9-2.2,4.9-4.9v-6.8h6.8c2.7,0,4.9-2.2,4.9-4.9C66.2,14.7,64,12.5,61.4,12.5
		"/>
	<g>
		<path class="st5" d="M49.8,34.7c-3.2,0-5.7-2.6-5.7-5.7v-5.9h-5.9c-3.2,0-5.7-2.6-5.7-5.7c0-3.2,2.6-5.7,5.7-5.7H44V5.7
			C44,2.6,46.6,0,49.8,0s5.7,2.6,5.7,5.7v5.9h5.9c3.2,0,5.7,2.6,5.7,5.7c0,3.2-2.6,5.7-5.7,5.7h-5.9V29
			C55.5,32.1,52.9,34.7,49.8,34.7z M38.1,13.4c-2.2,0-4,1.8-4,4c0,2.2,1.8,4,4,4h7.7V29c0,2.2,1.8,4,4,4s4-1.8,4-4v-7.7h7.7
			c2.2,0,4-1.8,4-4c0-2.2-1.8-4-4-4h-7.7V5.7c0-2.2-1.8-4-4-4s-4,1.8-4,4v7.6H38.1z"/>
	</g>
	<path class="st1" d="M7.8,53.9h9.8v9.8c0,3.9,3.1,7,7,7c3.9,0,7-3.1,7-7v-9.8h9.8c3.9,0,7-3.1,7-7s-3.1-7-7-7h-9.8V30
		c0-3.9-3.1-7-7-7c-3.9,0-7,3.1-7,7v9.8H7.8c-3.9,0-7,3.1-7,7S3.9,53.9,7.8,53.9"/>
	<path class="st14" d="M7.8,53.9h9.8v9.8c0,3.9,3.1,7,7,7c3.9,0,7-3.1,7-7v-9.8h9.8c3.9,0,7-3.1,7-7s-3.1-7-7-7h-9.8V30
		c0-3.9-3.1-7-7-7c-3.9,0-7,3.1-7,7v9.8H7.8c-3.9,0-7,3.1-7,7S3.9,53.9,7.8,53.9z"/>
</g>
<g class="st12">
	<path class="st8" d="M151.1,44.6c0,1.8-1.4,3.2-3.2,3.2h-39.2c-1.8,0-3.2-1.4-3.2-3.2V5.4c0-1.8,1.4-3.2,3.2-3.2h39.2
		c1.8,0,3.2,1.4,3.2,3.2V44.6z"/>
	<g class="st7">
		<defs>
			<path id="SVGID_3_" d="M108.7,2.3c-1.8,0-3.2,1.4-3.2,3.2v39.2c0,1.8,1.4,3.2,3.2,3.2h39.2c1.8,0,3.2-1.4,3.2-3.2V5.4
				c0-1.8-1.4-3.2-3.2-3.2H108.7z"/>
		</defs>
		<clipPath id="SVGID_4_">
			<use xlink:href="#SVGID_3_"  style="overflow:visible;"/>
		</clipPath>
		<path class="st4" d="M105.7,53.4h8.8v8.8c0,3.5,2.8,6.3,6.3,6.3c3.5,0,6.3-2.8,6.3-6.3v-8.8h8.8c3.5,0,6.3-2.8,6.3-6.3
			c0-3.5-2.8-6.3-6.3-6.3H127v-8.8c0-3.5-2.8-6.3-6.3-6.3c-3.5,0-6.3,2.8-6.3,6.3v8.8h-8.8c-3.5,0-6.3,2.8-6.3,6.3
			C99.4,50.6,102.2,53.4,105.7,53.4"/>
	</g>
	<path class="st9" d="M157.6,12.5h-6.8V5.7c0-2.7-2.2-4.9-4.9-4.9s-4.9,2.2-4.9,4.9v6.8h-6.8c-2.7,0-4.9,2.2-4.9,4.9
		c0,2.7,2.2,4.9,4.9,4.9h6.8V29c0,2.7,2.2,4.9,4.9,4.9s4.9-2.2,4.9-4.9v-6.8h6.8c2.7,0,4.9-2.2,4.9-4.9
		C162.5,14.7,160.3,12.5,157.6,12.5"/>
	<g class="st7">
		<path class="st5" d="M146,34.7c-3.2,0-5.7-2.6-5.7-5.7v-5.9h-5.9c-3.2,0-5.7-2.6-5.7-5.7c0-3.2,2.6-5.7,5.7-5.7h5.9V5.7
			c0-3.2,2.6-5.7,5.7-5.7s5.7,2.6,5.7,5.7v5.9h5.9c3.2,0,5.7,2.6,5.7,5.7c0,3.2-2.6,5.7-5.7,5.7h-5.9V29
			C151.7,32.1,149.2,34.7,146,34.7z M134.4,13.4c-2.2,0-4,1.8-4,4c0,2.2,1.8,4,4,4h7.7V29c0,2.2,1.8,4,4,4s4-1.8,4-4v-7.7h7.7
			c2.2,0,4-1.8,4-4c0-2.2-1.8-4-4-4h-7.7V5.7c0-2.2-1.8-4-4-4s-4,1.8-4,4v7.6H134.4z"/>
	</g>
	<path class="st0" d="M104,53.9h9.8v9.8c0,3.9,3.1,7,7,7c3.9,0,7-3.1,7-7v-9.8h9.8c3.9,0,7-3.1,7-7s-3.1-7-7-7h-9.8V30
		c0-3.9-3.1-7-7-7c-3.9,0-7,3.1-7,7v9.8H104c-3.9,0-7,3.1-7,7S100.1,53.9,104,53.9"/>
	<path class="st13" d="M104,53.9h9.8v9.8c0,3.9,3.1,7,7,7c3.9,0,7-3.1,7-7v-9.8h9.8c3.9,0,7-3.1,7-7s-3.1-7-7-7h-9.8V30
		c0-3.9-3.1-7-7-7c-3.9,0-7,3.1-7,7v9.8H104c-3.9,0-7,3.1-7,7S100.1,53.9,104,53.9z"/>
</g>
<path class="st1" d="M156.5,12.1h-6.6V5.6c0-2.6-2.1-4.7-4.7-4.7c-2.6,0-4.7,2.1-4.7,4.7v6.6H134c-2.6,0-4.7,2.1-4.7,4.7
	c0,2.6,2.1,4.7,4.7,4.7h6.6v6.6c0,2.6,2.1,4.7,4.7,4.7c2.6,0,4.7-2.1,4.7-4.7v-6.6h6.6c2.6,0,4.7-2.1,4.7-4.7
	C161.2,14.2,159.1,12.1,156.5,12.1"/>
<path class="st5" d="M145.2,33.7c-3.1,0-5.6-2.5-5.6-5.6v-5.7H134c-3.1,0-5.6-2.5-5.6-5.6s2.5-5.6,5.6-5.6h5.7V5.6
	c0-3.1,2.5-5.6,5.6-5.6c3.1,0,5.6,2.5,5.6,5.6v5.7h5.7c3.1,0,5.6,2.5,5.6,5.6s-2.5,5.6-5.6,5.6h-5.7v5.7
	C150.8,31.2,148.3,33.7,145.2,33.7z M134,13c-2.1,0-3.8,1.7-3.8,3.8s1.7,3.8,3.8,3.8h7.4v7.4c0,2.1,1.7,3.8,3.8,3.8
	c2.1,0,3.8-1.7,3.8-3.8v-7.4h7.4c2.1,0,3.8-1.7,3.8-3.8s-1.7-3.8-3.8-3.8h-7.4V5.6c0-2.1-1.7-3.8-3.8-3.8c-2.1,0-3.8,1.7-3.8,3.8V13
	H134z"/>
<g>
	<path class="st1" d="M104.5,52.3h9.5v9.5c0,3.8,3,6.8,6.8,6.8c3.8,0,6.8-3.1,6.8-6.8v-9.5h9.5c3.8,0,6.8-3.1,6.8-6.8
		c0-3.8-3.1-6.8-6.8-6.8h-9.5v-9.5c0-3.8-3.1-6.8-6.8-6.8c-3.8,0-6.8,3.1-6.8,6.8v9.5h-9.5c-3.8,0-6.8,3.1-6.8,6.8
		C97.7,49.2,100.7,52.3,104.5,52.3"/>
</g>
<path class="st2" d="M104.5,52.3h9.5v9.5c0,3.8,3,6.8,6.8,6.8c3.8,0,6.8-3.1,6.8-6.8v-9.5h9.5c3.8,0,6.8-3.1,6.8-6.8
	c0-3.8-3.1-6.8-6.8-6.8h-9.5v-9.5c0-3.8-3.1-6.8-6.8-6.8c-3.8,0-6.8,3.1-6.8,6.8v9.5h-9.5c-3.8,0-6.8,3.1-6.8,6.8
	C97.7,49.2,100.7,52.3,104.5,52.3z"/>
<rect x="96.2" class="st6" width="65.8" height="70"/>
</svg>
